<svg width="83" height="83" viewBox="0 0 83 83" fill="none" xmlns="http://www.w3.org/2000/svg">
<path d="M41.5 76.0833C22.4002 76.0833 6.91669 60.5998 6.91669 41.5C6.91669 22.4001 22.4002 6.91663 41.5 6.91663C60.5999 6.91663 76.0834 22.4001 76.0834 41.5C76.0624 60.5911 60.5912 76.0623 41.5 76.0833ZM13.8334 42.0948C13.997 57.3158 26.4255 69.5455 41.6471 69.464C56.8688 69.3818 69.1651 57.0192 69.1651 41.7974C69.1651 26.5755 56.8688 14.2129 41.6471 14.1307C26.4255 14.0493 13.997 26.279 13.8334 41.5V42.0948ZM44.9584 58.7916H38.0417V44.9583H24.2084V38.0416H38.0417V24.2083H44.9584V38.0416H58.7917V44.9583H44.9584V58.7916Z" fill="#EA2C62"/>
</svg>
